<?xml version="1.0" encoding="UTF-8"?>
<svg width="256px" height="256px" viewBox="0 0 256 256" version="1.1" xmlns="http://www.w3.org/2000/svg" preserveAspectRatio="xMidYMid">
    <title>TypeScript</title>
    <g>
        <rect fill="#3178C6" x="0" y="0" width="256" height="256" rx="28"></rect>
        <path d="M56.6112759,128.037947 L56.6112759,142.304036 L82.7672847,142.304036 L82.7672847,212.074666 L105.804324,212.074666 L105.804324,142.304036 L131.960333,142.304036 L131.960333,128.037947 L56.6112759,128.037947 Z" fill="#FFFFFF" fill-rule="nonzero"></path>
        <path d="M157.108816,128.037947 L157.108816,139.955439 C161.366196,135.471642 165.834284,132.094404 170.513081,129.823726 C175.191878,127.553048 180.137675,126.417709 185.350472,126.417709 C194.338202,126.417709 201.665339,128.782012 207.331882,133.510618 C212.998426,138.239224 215.831698,144.859041 215.831698,153.370068 C215.831698,161.881095 212.953486,168.658193 207.197063,173.701361 C201.44064,178.744529 193.923617,181.266113 184.645995,181.266113 C180.004897,181.266113 175.697004,180.618139 171.722317,179.322192 C167.74763,178.026244 163.772943,175.890494 159.798256,172.914941 L159.798256,212.074666 L157.108816,212.074666 L157.108816,128.037947 Z M184.511176,129.107193 C179.787439,129.107193 175.326292,130.197592 171.127725,132.37839 C166.929157,134.559188 162.99719,137.891847 159.331823,142.376367 L159.331823,165.905578 C163.772943,170.256519 168.214063,173.431935 172.655183,175.431826 C177.096303,177.431718 181.626483,178.431663 186.245722,178.431663 C194.516081,178.431663 201.175679,176.112301 206.224516,171.473576 C211.273353,166.834851 213.797772,160.620859 213.797772,152.8316 C213.797772,144.908761 211.184474,138.553071 205.957878,133.764529 C200.731282,128.975987 193.565826,126.581716 184.511176,126.581716 L184.511176,129.107193 Z" fill="#FFFFFF" fill-rule="nonzero"></path>
    </g>
</svg>